<?xml version="1.0" standalone="no"?>
<!DOCTYPE svg PUBLIC "-//W3C//DTD SVG 20010904//EN"
 "http://www.w3.org/TR/2001/REC-SVG-20010904/DTD/svg10.dtd">
<svg version="1.0" xmlns="http://www.w3.org/2000/svg"
 width="1024.000000pt" height="1024.000000pt" viewBox="0 0 1024.000000 1024.000000"
 preserveAspectRatio="xMidYMid meet">
<metadata>
Created by potrace 1.14, written by Peter Selinger 2001-2017
</metadata>
<g transform="translate(0.000000,1024.000000) scale(0.100000,-0.100000)"
fill="#000000" stroke="none">
<path d="M1 7718 c1 -2246 3 -2500 15 -2314 8 115 16 211 18 213 5 5 1907 276
1910 272 7 -8 -148 -3254 -155 -3259 -4 -3 -408 -84 -898 -180 l-891 -174 0
-163 c0 -124 3 -163 13 -163 6 1 408 79 892 174 l880 172 3 -1148 2 -1148 160
0 160 0 2 1195 3 1196 1304 595 c717 327 1305 593 1307 591 5 -4 107 -3428
102 -3432 -2 -2 -258 -34 -568 -72 l-565 -68 958 -3 c526 -1 1388 -1 1914 0
l957 3 -1184 73 c-652 41 -1185 74 -1186 75 -2 6 -104 3510 -102 3513 2 1 462
-1 1023 -6 561 -5 1151 -9 1310 -10 l290 0 38 -1687 c21 -929 41 -1750 44
-1825 l6 -138 158 0 159 0 0 38 c0 20 -18 822 -40 1781 -22 959 -39 1745 -37
1747 3 3 1848 -695 2210 -835 l27 -11 0 174 0 173 -1047 398 c-577 219 -1083
411 -1125 428 -66 25 -78 34 -78 53 0 17 -7 23 -26 26 -23 3 -45 50 -309 678
-156 371 -283 675 -282 676 6 4 2810 75 2814 71 2 -3 15 -225 27 -494 l24
-488 1 2913 1 2912 -5120 0 -5120 0 1 -2522z m4778 -2128 c-27 -833 -51 -1547
-54 -1586 l-6 -70 -1297 -592 c-713 -325 -1297 -590 -1297 -589 -1 2 137 2974
147 3162 l3 59 1275 567 c701 312 1276 566 1277 565 0 0 -21 -683 -48 -1516z
m1351 558 l865 -763 297 -705 c163 -388 295 -706 294 -707 -4 -4 -2530 18
-2534 21 -4 4 87 2855 94 2943 l6 73 56 -50 c32 -27 446 -393 922 -812z"/>
<path d="M9245 99 c-533 -48 -988 -90 -1010 -92 -22 -2 420 -4 983 -5 l1022
-2 0 95 c0 70 -3 95 -12 94 -7 -1 -449 -41 -983 -90z"/>
<path d="M2 20 c0 -14 2 -19 5 -12 2 6 2 18 0 25 -3 6 -5 1 -5 -13z"/>
</g>
</svg>
