<?xml version="1.0" encoding="UTF-8"?>
<svg id="Ebene_1" data-name="Ebene 1" xmlns="http://www.w3.org/2000/svg" viewBox="0 0 1772 640">
  <defs>
    <style>
      .cls-1 {
        fill: none;
        stroke: #027755;
        stroke-miterlimit: 10;
        stroke-width: 15px;
      }

      .cls-2 {
        fill: #c092ff;
      }

      .cls-2, .cls-3 {
        stroke-width: 0px;
      }

      .cls-3 {
        fill: #027755;
      }
    </style>
  </defs>
  <g>
    <path class="cls-3" d="m115.3538,553.0488c-.9551,0-1.6904-.2803-2.21-.8447-.5205-.5625-.7803-1.2783-.7803-2.1455v-84.8896c0-.9521.2598-1.71.7803-2.2744.5195-.5635,1.2549-.8457,2.21-.8457h33.0195c6.4131,0,11.9805,1.04,16.7051,3.1201,4.7227,2.0801,8.3857,5.1797,10.9854,9.2949,2.5996,4.1172,3.9004,9.2529,3.9004,15.4053s-1.3008,11.2666-3.9004,15.3398c-2.5996,4.0742-6.2627,7.1494-10.9854,9.2295-4.7246,2.0801-10.292,3.1201-16.7051,3.1201h-23.0098v32.5c0,.8672-.2822,1.583-.8447,2.1455-.5645.5645-1.3223.8447-2.2754.8447h-6.8896Zm9.8799-46.4102h22.4902c6.4121,0,11.2227-1.4297,14.4297-4.29,3.2051-2.8594,4.8105-7.0195,4.8105-12.4795,0-5.373-1.5605-9.5332-4.6807-12.4805-3.1201-2.9453-7.9746-4.4199-14.5596-4.4199h-22.4902v33.6699Z"/>
    <path class="cls-3" d="m198.8138,553.0488c-.9551,0-1.6904-.2803-2.21-.8447-.5205-.5625-.7803-1.2783-.7803-2.1455v-84.8896c0-.9521.2598-1.71.7803-2.2744.5195-.5635,1.2549-.8457,2.21-.8457h53.04c.9521,0,1.71.2822,2.2754.8457.5625.5645.8447,1.3223.8447,2.2744v5.2002c0,.9551-.2822,1.6895-.8447,2.209-.5654.5205-1.3232.7812-2.2754.7812h-43.4199v30.2891h40.8203c.9521,0,1.71.2832,2.2744.8457.5625.5645.8447,1.3223.8447,2.2744v5.2002c0,.8672-.2822,1.582-.8447,2.1455-.5645.5645-1.3223.8447-2.2744.8447h-40.8203v35.0996c0,.8672-.2822,1.583-.8447,2.1455-.5654.5645-1.3232.8447-2.2754.8447h-6.5Z"/>
    <path class="cls-3" d="m274.7337,553.0488c-.9551,0-1.6904-.2803-2.21-.8447-.5205-.5625-.7803-1.2783-.7803-2.1455v-84.8896c0-.9521.2598-1.71.7803-2.2744.5195-.5635,1.2549-.8457,2.21-.8457h53.04c.9521,0,1.71.2822,2.2754.8457.5625.5645.8447,1.3223.8447,2.2744v5.2002c0,.9551-.2822,1.6895-.8447,2.209-.5654.5205-1.3232.7812-2.2754.7812h-43.4199v30.2891h40.8203c.9521,0,1.71.2832,2.2744.8457.5625.5645.8447,1.3223.8447,2.2744v5.2002c0,.8672-.2822,1.582-.8447,2.1455-.5645.5645-1.3223.8447-2.2744.8447h-40.8203v35.0996c0,.8672-.2822,1.583-.8447,2.1455-.5654.5645-1.3232.8447-2.2754.8447h-6.5Z"/>
    <path class="cls-3" d="m380.4241,553.0488c-.9551,0-1.6904-.2803-2.21-.8447-.5205-.5625-.7803-1.2783-.7803-2.1455v-84.8896c0-.9521.2598-1.71.7803-2.2744.5195-.5635,1.2549-.8457,2.21-.8457h53.04c.9521,0,1.71.2822,2.2754.8457.5625.5645.8447,1.3223.8447,2.2744v5.2002c0,.9551-.2822,1.6895-.8447,2.209-.5654.5205-1.3232.7812-2.2754.7812h-43.4199v30.2891h40.8203c.9521,0,1.71.2832,2.2744.8457.5625.5645.8447,1.3223.8447,2.2744v5.2002c0,.8672-.2822,1.582-.8447,2.1455-.5645.5645-1.3223.8447-2.2744.8447h-40.8203v35.0996c0,.8672-.2822,1.583-.8447,2.1455-.5654.5645-1.3232.8447-2.2754.8447h-6.5Z"/>
    <path class="cls-3" d="m456.344,553.0488c-.9551,0-1.6904-.2803-2.21-.8447-.5205-.5625-.7803-1.2783-.7803-2.1455v-84.8896c0-.9521.2598-1.71.7803-2.2744.5195-.5635,1.2549-.8457,2.21-.8457h53.04c.9521,0,1.71.2822,2.2754.8457.5625.5645.8447,1.3223.8447,2.2744v5.2002c0,.9551-.2822,1.6895-.8447,2.209-.5654.5205-1.3232.7812-2.2754.7812h-43.4199v30.2891h40.8203c.9521,0,1.71.2832,2.2744.8457.5625.5645.8447,1.3223.8447,2.2744v5.2002c0,.8672-.2822,1.582-.8447,2.1455-.5645.5645-1.3223.8447-2.2744.8447h-40.8203v35.0996c0,.8672-.2822,1.583-.8447,2.1455-.5654.5645-1.3232.8447-2.2754.8447h-6.5Z"/>
    <path class="cls-3" d="m557.6155,554.3486c-7.54,0-13.8672-1.1699-18.9805-3.5098-5.1143-2.3398-9.0352-5.3506-11.7646-9.0352-2.7305-3.6826-4.1826-7.5605-4.3555-11.6348,0-.6924.2803-1.3203.8457-1.8848.5625-.5635,1.2344-.8457,2.0146-.8457h6.6299c1.04,0,1.8203.2607,2.3398.7803.5205.5205.8652,1.127,1.04,1.8203.5205,2.0801,1.6025,4.1396,3.25,6.1748,1.6455,2.0371,4.0078,3.7275,7.085,5.0703,3.0752,1.3447,7.04,2.0146,11.8955,2.0146,7.4521,0,12.9346-1.3203,16.4443-3.9648,3.5107-2.6426,5.2656-6.1748,5.2656-10.5947,0-3.0332-.9326-5.4805-2.7949-7.3457-1.8652-1.8623-4.7031-3.5303-8.5156-5.0049-3.8145-1.4727-8.7549-3.0752-14.8193-4.8096-6.3281-1.8203-11.5703-3.8125-15.7305-5.9805-4.1602-2.165-7.2598-4.8525-9.2949-8.0596-2.0371-3.2051-3.0547-7.2803-3.0547-12.2207,0-4.6797,1.2549-8.8594,3.7695-12.5449,2.5127-3.6816,6.1523-6.6074,10.9199-8.7744,4.7656-2.165,10.4854-3.25,17.1602-3.25,5.373,0,10.0752.7148,14.1055,2.1455,4.0293,1.4297,7.3877,3.3359,10.0742,5.7188,2.6855,2.3848,4.7227,4.9404,6.1104,7.6699,1.3857,2.7305,2.123,5.3955,2.21,7.9961,0,.6064-.2168,1.1914-.6504,1.7549-.4346.5645-1.127.8447-2.0791.8447h-6.8906c-.6074,0-1.2344-.1729-1.8848-.5205-.6504-.3447-1.1494-.9951-1.4951-1.9492-.5195-3.5537-2.5146-6.543-5.9795-8.9697-3.4678-2.4258-7.9756-3.6406-13.5205-3.6406-5.6348,0-10.2051,1.084-13.7148,3.25-3.5098,2.168-5.2646,5.5469-5.2646,10.1396,0,2.9473.8223,5.3955,2.4697,7.3457,1.6455,1.9492,4.2451,3.6621,7.7998,5.1348,3.5527,1.4746,8.1904,3.0342,13.9102,4.6797,6.9326,1.9072,12.6104,3.9229,17.0303,6.0449,4.4199,2.125,7.6895,4.7676,9.8145,7.9307,2.123,3.1641,3.1855,7.2148,3.1855,12.1543,0,5.46-1.4307,10.1201-4.29,13.9756-2.8604,3.8574-6.8701,6.8047-12.0254,8.8398-5.1572,2.0352-11.2451,3.0547-18.2646,3.0547Z"/>
    <path class="cls-3" d="m639.1233,553.0488c-.8672,0-1.582-.2803-2.1445-.8447-.5645-.5625-.8447-1.2783-.8447-2.1455v-4.1602c0-.7793.2148-1.6445.6494-2.5996.4326-.9531,1.2998-1.9922,2.6006-3.1201l27.5596-27.5596c4.4199-3.7256,7.9082-6.9102,10.4648-9.5557,2.5557-2.6426,4.376-5.1777,5.46-7.6045,1.083-2.4258,1.625-4.9404,1.625-7.54,0-4.9404-1.3867-8.8604-4.1602-11.7646-2.7744-2.9033-6.8896-4.3555-12.3496-4.3555-3.4678,0-6.457.7148-8.9697,2.1445-2.5146,1.4307-4.4648,3.3809-5.8506,5.8506-1.3867,2.4697-2.3398,5.2646-2.8594,8.3848-.1748,1.1279-.6299,1.9072-1.3652,2.3398-.7373.4346-1.4102.6504-2.0146.6504h-6.7607c-.7793,0-1.4297-.2373-1.9492-.7148-.5205-.4756-.7803-1.0605-.7803-1.7549.085-3.293.7803-6.6074,2.0801-9.9453,1.2998-3.3359,3.2275-6.3701,5.7852-9.0996,2.5547-2.7305,5.7197-4.918,9.4893-6.5654,3.7705-1.6455,8.168-2.4697,13.1953-2.4697,6.8457,0,12.458,1.2344,16.835,3.7051,4.375,2.4697,7.6055,5.7422,9.6855,9.8145,2.0791,4.0742,3.1191,8.5371,3.1191,13.3906,0,3.8145-.6494,7.3018-1.9492,10.4648-1.3008,3.1641-3.1855,6.2393-5.6553,9.2295s-5.5254,6.0449-9.165,9.165l-24.96,25.3506h40.5596c.9531,0,1.7109.2598,2.2754.7793.5625.5205.8447,1.2578.8447,2.21v5.3301c0,.8672-.2822,1.583-.8447,2.1455-.5645.5645-1.3223.8447-2.2754.8447h-57.3301Z"/>
    <path class="cls-3" d="m741.4329,554.3486c-6.8477,0-12.6328-1.1924-17.3555-3.5752-4.7246-2.3818-8.3193-5.4795-10.79-9.2949-2.4697-3.8125-3.792-7.8428-3.9648-12.0898-.0869-.7803.1299-1.4072.6504-1.8848.5195-.4756,1.1699-.7148,1.9502-.7148h7.0195c.7803,0,1.4727.1943,2.0801.585.6055.3896,1.083,1.1494,1.4297,2.2744.8652,3.208,2.2754,5.8301,4.2256,7.8652,1.9492,2.0371,4.2021,3.5098,6.7598,4.4199,2.5557.9102,5.2207,1.3652,7.9951,1.3652,3.7256,0,7.1279-.7578,10.2051-2.2754,3.0752-1.5146,5.5244-3.7695,7.3447-6.7598s2.7305-6.6074,2.7305-10.8545c0-3.9004-.8906-7.2578-2.665-10.0752-1.7773-2.8154-4.2051-4.9824-7.2803-6.5-3.0771-1.5156-6.5225-2.2754-10.335-2.2754-2.8604,0-5.2002.3477-7.0205,1.04-1.8193.6953-3.3594,1.5176-4.6143,2.4697-1.2578.9551-2.3848,1.7773-3.3809,2.4707-.9971.6943-2.1016,1.04-3.3145,1.04h-6.7598c-.7803,0-1.4746-.2803-2.0801-.8457-.6074-.5625-.8672-1.2344-.7803-2.0146l4.1602-43.4199c.085-1.04.4102-1.8398.9746-2.4043.5625-.5635,1.3203-.8457,2.2754-.8457h45.3701c.8652,0,1.5801.2822,2.1445.8457.5625.5645.8447,1.2793.8447,2.1445v5.0703c0,.9541-.2822,1.6895-.8447,2.209-.5645.5205-1.2793.7803-2.1445.7803h-37.4404l-2.4697,25.6104c1.2998-.7803,3.2705-1.7109,5.915-2.7949,2.6426-1.083,6.3047-1.625,10.9844-1.625,4.333,0,8.3857.6494,12.1553,1.9502,3.7705,1.2998,7.1055,3.207,10.0098,5.7197,2.9033,2.5146,5.1777,5.5693,6.8252,9.165,1.6455,3.5967,2.4707,7.7344,2.4707,12.415,0,6.5869-1.4307,12.1768-4.29,16.7695-2.8604,4.5947-6.8047,8.083-11.8301,10.4648-5.0273,2.3828-10.748,3.5752-17.1602,3.5752Z"/>
  </g>
  <g>
    <path class="cls-2" d="m113.7542,381.457v-209.0195c0-2.4922.6797-4.4736,2.04-5.9512,1.3594-1.4707,3.2832-2.209,5.7793-2.209h17.3408c2.4912,0,4.4727.7383,5.9492,2.209,1.4717,1.4775,2.21,3.459,2.21,5.9512v93.8398h116.96v-93.8398c0-2.4922.7334-4.4736,2.21-5.9512,1.4717-1.4707,3.3418-2.209,5.6104-2.209h17.3398c2.4922,0,4.4736.7383,5.9502,2.209,1.4717,1.4775,2.21,3.459,2.21,5.9512v173.0195c0,2.2676-33.3203,16.2676-33.3203,14v-62.5801h-116.96v84.5801c0,2.2676-33.1035.543-33.3193,0Z"/>
    <path class="cls-2" d="m380.3098,395.6465c-13.8281-6.6826-24.4795-17-31.96-30.9395-7.4795-13.9395-11.6768-31.4502-12.5791-52.5303-.2285-9.9717-.3408-19.5498-.3408-28.7295s.1123-18.7539.3408-28.7305c.9023-20.8516,5.2695-38.25,13.0898-52.1895,7.8193-13.9404,18.6992-24.3633,32.6396-31.2803,13.9404-6.9111,30.2012-10.3701,48.79-10.3701,18.3604,0,34.5098,3.459,48.4502,10.3701,13.9395,6.917,24.873,17.3398,32.8096,31.2803,7.9316,13.9395,12.2402,31.3379,12.9199,52.1895.4521,9.9766.6807,19.5508.6807,28.7305s-.2285,18.7578-.6807,28.7295c-.6797,21.0801-4.8184,38.5908-12.4102,52.5303-7.5967,13.9395-18.3066,23.2568-32.1299,29.9395-29.96-15.6465-54.96-8.6465-99.6201,1Zm49.9805-18.8691c17.2227,0,31.333-5.2119,42.3301-15.6406,10.9912-10.4229,16.9414-27.3115,17.8496-50.6602.4521-10.1992.6807-19.3213.6807-27.3691,0-8.043-.2285-17.0537-.6807-27.0312-.457-15.6387-3.3467-28.3311-8.6699-38.0791-5.3281-9.7432-12.4102-16.8838-21.25-21.4209-8.8398-4.5312-18.9277-6.7988-30.2598-6.7988s-21.4199,2.2676-30.2598,6.7988c-8.8398,4.5371-15.9268,11.6777-21.25,21.4209-5.3291,9.748-8.3301,22.4404-9.0098,38.0791-.2285,9.9775-.3408,18.9883-.3408,27.0312,0,8.0479.1123,17.1699.3408,27.3691.9023,23.3486,6.9111,40.2373,18.0195,50.6602,11.1035,10.4287,25.2715,15.6406,42.5,15.6406Z"/>
    <path class="cls-2" d="m569.6858,388.457v-216.0195c0-2.4922.6797-4.4736,2.04-5.9512,1.3594-1.4707,3.2832-2.209,5.7793-2.209h82.96c25.6123,0,45.9004,6.0078,60.8604,18.0195,14.96,12.0176,22.4404,29.8086,22.4404,53.3799,0,17.457-4.3672,31.6787-13.0908,42.6699-8.7275,10.9971-20.5693,18.6475-35.5293,22.9502l47.8242,82.7031c.6807,1.3604-43.6406-12.96-45-15l-35.4648-62.2637h-59.5v56.7207c0,2.2676-33.3193,27.2676-33.3193,25Zm33.3193-110.6201h56.1006c17,0,29.6914-3.5693,38.0801-10.71,8.3828-7.1406,12.5801-17.7334,12.5801-31.79,0-13.8232-4.1387-24.3633-12.4102-31.6201-8.2773-7.252-21.0273-10.8799-38.25-10.8799h-56.1006v85Z"/>
    <path class="cls-2" d="m794.0852,377.457v-205.3604c0-2.2627.6797-4.1328,2.04-5.6104,1.3604-1.4707,3.2832-2.209,5.7803-2.209h18.0195c2.4922,0,4.4199.7383,5.7803,2.209,1.3604,1.4775,2.04,3.3477,2.04,5.6104v216.3604c0,2.2676-33.6602-8.7324-33.6602-11Z"/>
    <path class="cls-2" d="m869.5638,379.4971c0-3.4004.6797-6.1201,2.04-8.1602,1.3594-2.04,2.3799-3.5117,3.0596-4.4199l126.4795-173.0596h-120.6992c-2.2686,0-4.1387-.7344-5.6104-2.2109-1.4766-1.4707-2.21-3.3418-2.21-5.6094v-13.5996c0-2.4922.7334-4.4736,2.21-5.9512,1.4717-1.4707,3.3418-2.209,5.6104-2.209h154.0195c2.4922,0,4.4736.7383,5.9502,2.209,1.4717,1.4775,2.21,3.459,2.21,5.9512v14.6191c0,2.7207-.457,4.9883-1.3604,6.8008-.9082,1.8164-1.9277,3.5156-3.0596,5.0996l-114.2334,159.043-54.4062,21.4971Z"/>
    <path class="cls-2" d="m1063.97,335c-2-7-2.7345-16.8788-2.9893-22.8232-.2285-9.9717-.3398-19.5498-.3398-28.7295s.1113-18.7539.3398-28.7305c.9033-20.8516,5.2695-38.25,13.0898-52.1895,7.8203-13.9404,18.7002-24.3633,32.6396-31.2803,13.9404-6.9111,30.2021-10.3701,48.79-10.3701,18.3604,0,34.5098,3.459,48.4502,10.3701,13.9404,6.917,24.873,17.3398,32.8096,31.2803,7.9316,13.9395,12.2402,31.3379,12.9209,52.1895.4512,9.9766.6797,19.5508.6797,28.7305s-.2285,18.7578-.6797,28.7295c-.6315,19.5582-4.2398,36.0438-10.8201,49.4553l-25.4787-31.3036c1.2507-5.9964,2.0169-12.6137,2.2987-19.8519.4512-10.1992.6797-19.3213.6797-27.3691,0-8.043-.2285-17.0537-.6797-27.0312-.457-15.6387-3.3477-28.3311-8.6709-38.0791-5.3281-9.7432-12.4092-16.8838-21.25-21.4209-8.8398-4.5312-18.9277-6.7988-30.2598-6.7988s-21.4199,2.2676-30.2598,6.7988c-8.8398,4.5371-15.9268,11.6777-21.25,21.4209-5.3281,9.748-8.3301,22.4404-9.0098,38.0791-.2285,9.9775-.3398,18.9883-.3398,27.0312,0,8.0479.1113,17.1699.3398,27.3691.257,6.643.9272,12.763,2.0105,18.36l-33.0213,6.1634Z"/>
    <path class="cls-2" d="m1301.0159,402.2773c-2.4971,0-4.4199-.7334-5.7803-2.2109-1.3604-1.4707-2.04-3.3418-2.04-5.6094v-222.0195c0-2.4922.6797-4.4736,2.04-5.9512,1.3604-1.4707,3.2832-2.209,5.7803-2.209h15.6396c2.7197,0,4.7598.627,6.1201,1.8691,1.3594,1.249,2.1514,2.2109,2.3799,2.8906l112.8799,173.4004v-170c0-2.4922.6797-4.4736,2.04-5.9512,1.3604-1.4707,3.2832-2.209,5.7803-2.209h16.3193c2.4922,0,4.4736.7383,5.9502,2.209,1.4717,1.4775,2.21,3.459,2.21,5.9512v189.6797c0,2.2676-36.9141,28.3389-37.3652,27.8828l-107.4746-164.1836v168.6406c0,2.2676-.7383,4.1387-2.21,5.6094-1.4766,1.4775-3.458,2.2109-5.9502,2.2109h-16.3193Z"/>
    <path class="cls-2" d="m1564.513,379.457v-184.9199h-65.2793c-2.2686,0-4.1387-.7334-5.6104-2.2109-1.4766-1.4707-2.21-3.3408-2.21-5.6094v-14.2793c0-2.4922.7334-4.4736,2.21-5.9512,1.4717-1.4707,3.3418-2.209,5.6104-2.209h163.8799c2.4912,0,4.4727.7383,5.9502,2.209,1.4707,1.4775,2.21,3.459,2.21,5.9512v14.2793c0,2.2686-.7393,4.1387-2.21,5.6094-1.4775,1.4775-3.459,2.2109-5.9502,2.2109h-64.9404v199.9199c0,2.2676-33.6602-12.7324-33.6602-15Z"/>
  </g>
  <polyline class="cls-1" points="1684.1987 326.932 1635.2175 385.2119 1617.7333 394.9388 1606.4345 395.7589 1536.0554 364.4155 1463.8681 363.838 1413.1522 404.1624 1355.6932 401.5991 1271.8877 393.7838 1254.4035 384.0569 1198.4223 325.777 1161.6124 325.154 1129.3256 325.908 1075.0129 335.4953 1026.4103 350.4541 948.0443 357.2561 911.5565 357.527 866.8071 378.333 827.3039 386.0041 781.3124 372.5585 732.6234 384.3022 671.603 344.3585 649.1368 329.4137 609.7587 353.0001 560.0105 394.3227 507.8918 393.2495 469.697 385.6917 425.3531 385.2326 391.9976 395.0519 345.3407 379.7156 305.4031 339.3205 296.1631 348.5605 282.3031 346.2505 267.2881 357.223 235.5256 347.983 206.6506 352.0255 196.8331 362.998 175.4656 365.8855 138.5056 379.168 115.9831 375.1255 85.3756 376.858"/>
</svg>