<?xml version="1.0" encoding="UTF-8"?>
<svg width="1675px" height="307px" viewBox="0 0 1675 307" version="1.1" xmlns="http://www.w3.org/2000/svg" xmlns:xlink="http://www.w3.org/1999/xlink">
    <!-- Generator: Sketch 60.1 (88133) - https://sketch.com -->
    <title>Artboard</title>
    <desc>Created with Sketch.</desc>
    <g id="Artboard" stroke="none" stroke-width="1" fill="none" fill-rule="evenodd">
        <g id="logo_weiss-Kopie" transform="translate(35.000000, 29.000000)">
            <g id="Group" transform="translate(28.000000, 0.000000)" fill="#FFFFFF" fill-rule="nonzero">
                <path d="M0.7542,221.457 L0.7542,12.4375 C0.7542,9.9453 1.4339,7.9639 2.7942,6.4863 C4.1536,5.0156 6.0774,4.2773 8.5735,4.2773 L25.9143,4.2773 C28.4055,4.2773 30.387,5.0156 31.8635,6.4863 C33.3352,7.9638 34.0735,9.9453 34.0735,12.4375 L34.0735,106.2773 L151.0335,106.2773 L151.0335,12.4375 C151.0335,9.9453 151.7669,7.9639 153.2435,6.4863 C154.7152,5.0156 156.5853,4.2773 158.8539,4.2773 L176.1937,4.2773 C178.6859,4.2773 180.6673,5.0156 182.1439,6.4863 C183.6156,7.9638 184.3539,9.9453 184.3539,12.4375 L184.3539,185.457 C184.3539,187.7246 151.0336,201.7246 151.0336,199.457 L151.0336,136.8769 L34.0736,136.8769 L34.0736,221.457 C34.0736,223.7246 0.9701,222 0.7542,221.457 L0.7542,221.457 Z" id="Path"></path>
                <path d="M267.3098,235.6465 C253.4817,228.9639 242.8303,218.6465 235.3498,204.707 C227.8703,190.7675 223.673,173.2568 222.7707,152.1767 C222.5422,142.205 222.4299,132.6269 222.4299,123.4472 C222.4299,114.2675 222.5422,104.6933 222.7707,94.7167 C223.673,73.8651 228.0402,56.4667 235.8605,42.5272 C243.6798,28.5868 254.5597,18.1639 268.5001,11.2469 C282.4405,4.3358 298.7013,0.8768 317.2901,0.8768 C335.6505,0.8768 351.7999,4.3358 365.7403,11.2469 C379.6798,18.1639 390.6133,28.5867 398.5499,42.5272 C406.4815,56.4667 410.7901,73.8651 411.4698,94.7167 C411.9219,104.6933 412.1505,114.2675 412.1505,123.4472 C412.1505,132.6269 411.922,142.205 411.4698,152.1767 C410.7901,173.2568 406.6514,190.7675 399.0596,204.707 C391.4629,218.6465 380.753,227.9638 366.9297,234.6465 C336.9697,219 311.9697,226 267.3096,235.6465 L267.3098,235.6465 Z M317.2903,216.7774 C334.513,216.7774 348.6233,211.5655 359.6204,201.1368 C370.6116,190.7139 376.5618,173.8253 377.47,150.4766 C377.9221,140.2774 378.1507,131.1553 378.1507,123.1075 C378.1507,115.0645 377.9222,106.0538 377.47,96.0763 C377.013,80.4376 374.1233,67.7452 368.8001,57.9972 C363.472,48.254 356.3899,41.1134 347.5501,36.5763 C338.7103,32.0451 328.6224,29.7775 317.2903,29.7775 C305.9582,29.7775 295.8704,32.0451 287.0305,36.5763 C278.1907,41.1134 271.1037,48.254 265.7805,57.9972 C260.4514,67.7452 257.4504,80.4376 256.7707,96.0763 C256.5422,106.0538 256.4299,115.0646 256.4299,123.1075 C256.4299,131.1554 256.5422,140.2774 256.7707,150.4766 C257.673,173.8252 263.6818,190.7139 274.7902,201.1368 C285.8937,211.5655 300.0617,216.7774 317.2902,216.7774 L317.2903,216.7774 Z" id="Shape"></path>
                <path d="M456.6858,228.457 L456.6858,12.4375 C456.6858,9.9453 457.3655,7.9639 458.7258,6.4863 C460.0852,5.0156 462.009,4.2773 464.5051,4.2773 L547.4651,4.2773 C573.0774,4.2773 593.3655,10.2851 608.3255,22.2968 C623.2855,34.3144 630.7659,52.1054 630.7659,75.6767 C630.7659,93.1337 626.3987,107.3554 617.6751,118.3466 C608.9476,129.3437 597.1058,136.9941 582.1458,141.2968 L629.97,223.9999 C630.6507,225.3603 586.3294,211.0399 584.97,208.9999 L549.5052,146.7362 L490.0052,146.7362 L490.0052,203.4569 C490.0052,205.7245 456.6858,230.7245 456.6858,228.4569 L456.6858,228.457 Z M490.0051,117.8369 L546.1057,117.8369 C563.1057,117.8369 575.7971,114.2676 584.1858,107.1269 C592.5686,99.9863 596.7659,89.3935 596.7659,75.3369 C596.7659,61.5137 592.6272,50.9736 584.3557,43.7168 C576.0784,36.4648 563.3284,32.8369 546.1057,32.8369 L490.0051,32.8369 L490.0051,117.8369 Z" id="Shape"></path>
                <path d="M681.0851,217.457 L681.0851,12.0966 C681.0851,9.8339 681.7649,7.9638 683.1252,6.4862 C684.4856,5.0155 686.4084,4.2772 688.9055,4.2772 L706.925,4.2772 C709.4172,4.2772 711.3449,5.0155 712.7053,6.4862 C714.0657,7.9637 714.7453,9.8339 714.7453,12.0966 L714.7453,228.457 C714.7453,230.7246 681.0851,219.7246 681.0851,217.457 L681.0851,217.457 Z" id="Path"></path>
                <path d="M756.5638,219.4971 C756.5638,216.0967 757.2435,213.377 758.6038,211.3369 C759.9632,209.2969 760.9837,207.8252 761.6634,206.917 L888.1429,33.8574 L767.4437,33.8574 C765.1751,33.8574 763.305,33.123 761.8333,31.6465 C760.3567,30.1758 759.6233,28.3047 759.6233,26.0371 L759.6233,12.4375 C759.6233,9.9453 760.3567,7.9639 761.8333,6.4863 C763.305,5.0156 765.1751,4.2773 767.4437,4.2773 L921.4632,4.2773 C923.9554,4.2773 925.9368,5.0156 927.4134,6.4863 C928.8851,7.9638 929.6234,9.9453 929.6234,12.4375 L929.6234,27.0566 C929.6234,29.7773 929.1664,32.0449 928.263,33.8574 C927.3548,35.6738 926.3353,37.373 925.2034,38.957 L810.97,198 L756.5638,219.4971 L756.5638,219.4971 Z" id="Path"></path>
                <path d="M950.97,175 C948.97,168 948.2355,158.1212 947.9807,152.1768 C947.7522,142.2051 947.6409,132.627 947.6409,123.4473 C947.6409,114.2676 947.7522,104.6934 947.9807,94.7168 C948.884,73.8652 953.2502,56.4668 961.0705,42.5273 C968.8908,28.5869 979.7707,18.164 993.7101,11.247 C1007.6505,4.3359 1023.9122,0.8769 1042.5001,0.8769 C1060.8605,0.8769 1077.0099,4.3359 1090.9503,11.247 C1104.8907,18.164 1115.8233,28.5868 1123.7599,42.5273 C1131.6915,56.4668 1136.0001,73.8652 1136.6808,94.7168 C1137.132,104.6934 1137.3605,114.2676 1137.3605,123.4473 C1137.3605,132.627 1137.132,142.2051 1136.6808,152.1768 C1136.0493,171.735 1132.441,188.2206 1125.8607,201.6321 L1100.382,170.3285 C1101.6327,164.3321 1102.3989,157.7148 1102.6807,150.4766 C1103.1319,140.2774 1103.3604,131.1553 1103.3604,123.1075 C1103.3604,115.0645 1103.1319,106.0538 1102.6807,96.0763 C1102.2237,80.4376 1099.333,67.7452 1094.0098,57.9972 C1088.6817,48.254 1081.6006,41.1134 1072.7598,36.5763 C1063.92,32.0451 1053.8321,29.7775 1042.5,29.7775 C1031.1679,29.7775 1021.0801,32.0451 1012.2402,36.5763 C1003.4004,41.1134 996.3134,48.254 990.9902,57.9972 C985.6621,67.7452 982.6601,80.4376 981.9804,96.0763 C981.7519,106.0538 981.6406,115.0646 981.6406,123.1075 C981.6406,131.1554 981.7519,140.2774 981.9804,150.4766 C982.2374,157.1196 982.9076,163.2396 983.9909,168.8366 L950.9696,175 L950.97,175 Z" id="Path"></path>
                <path d="M1188.0159,242.2773 C1185.5188,242.2773 1183.596,241.5439 1182.2356,240.0664 C1180.8752,238.5957 1180.1956,236.7246 1180.1956,234.457 L1180.1956,12.4375 C1180.1956,9.9453 1180.8753,7.9639 1182.2356,6.4863 C1183.596,5.0156 1185.5188,4.2772 1188.0159,4.2772 L1203.6555,4.2772 C1206.3752,4.2772 1208.4153,4.9043 1209.7756,6.1464 C1211.135,7.3954 1211.927,8.3573 1212.1555,9.037 L1325.0354,182.4374 L1325.0354,12.4374 C1325.0354,9.9452 1325.7151,7.9638 1327.0754,6.4862 C1328.4358,5.0155 1330.3586,4.2772 1332.8557,4.2772 L1349.175,4.2772 C1351.6672,4.2772 1353.6486,5.0155 1355.1252,6.4862 C1356.5969,7.9637 1357.3352,9.9452 1357.3352,12.4374 L1357.3352,202.1171 C1357.3352,204.3847 1320.4211,230.456 1319.97,229.9999 L1212.4954,65.8163 L1212.4954,234.4569 C1212.4954,236.7245 1211.7571,238.5956 1210.2854,240.0663 C1208.8088,241.5438 1206.8274,242.2773 1204.3352,242.2773 L1188.0159,242.2773 L1188.0159,242.2773 Z" id="Path"></path>
                <path d="M1451.513,219.457 L1451.513,34.5371 L1386.2337,34.5371 C1383.9651,34.5371 1382.095,33.8037 1380.6233,32.3262 C1379.1467,30.8555 1378.4133,28.9854 1378.4133,26.7168 L1378.4133,12.4375 C1378.4133,9.9453 1379.1467,7.9639 1380.6233,6.4863 C1382.095,5.0156 1383.9651,4.2773 1386.2337,4.2773 L1550.1136,4.2773 C1552.6048,4.2773 1554.5863,5.0156 1556.0638,6.4863 C1557.5345,7.9638 1558.2738,9.9453 1558.2738,12.4375 L1558.2738,26.7168 C1558.2738,28.9854 1557.5345,30.8555 1556.0638,32.3262 C1554.5863,33.8037 1552.6048,34.5371 1550.1136,34.5371 L1485.1732,34.5371 L1485.1732,234.457 C1485.1732,236.7246 1451.513,221.7246 1451.513,219.457 Z" id="Path"></path>
            </g>
            <polyline id="Path" stroke="#FFFFFF" stroke-width="15" points="1599.1987 166.932 1550.2175 225.2119 1532.7333 234.9388 1521.4345 235.7589 1451.0554 204.4155 1378.8681 203.838 1328.1522 244.1624 1270.6932 241.5991 1186.8877 233.7838 1169.4035 224.0569 1113.4223 165.777 1076.6124 165.154 1044.3256 165.908 990.0129 175.4953 941.4103 190.4541 863.0443 197.2561 826.5565 197.527 781.8071 218.333 742.3039 226.0041 696.3124 212.5585 647.6234 224.3022 586.603 184.3585 564.1368 169.4137 524.7587 193.0001 475.0105 234.3227 422.8918 233.2495 384.697 225.6917 340.3531 225.2326 306.9976 235.0519 260.3407 219.7156 220.4031 179.3205 211.1631 188.5605 197.3031 186.2505 182.2881 197.223 150.5256 187.983 121.6506 192.0255 111.8331 202.998 90.4656 205.8855 53.5056 219.168 30.9831 215.1255 0.3756 216.858"></polyline>
        </g>
    </g>
</svg>