<?xml version="1.0" encoding="UTF-8"?>
<svg width="1614px" height="411px" viewBox="0 0 1614 411" version="1.1" xmlns="http://www.w3.org/2000/svg" xmlns:xlink="http://www.w3.org/1999/xlink">
    <!-- Generator: Sketch 60.1 (88133) - https://sketch.com -->
    <title>Artboard</title>
    <desc>Created with Sketch.</desc>
    <g id="Artboard" stroke="none" stroke-width="1" fill="none" fill-rule="evenodd">
        <g id="logo_weiss" transform="translate(7.000000, 7.000000)">
            <g id="Group" transform="translate(27.000000, 300.000000)" fill="#FFFFFF" fill-rule="nonzero">
                <path d="M3.3538,93.0488 C2.3987,93.0488 1.6634,92.7685 1.1438,92.2041 C0.6233,91.6416 0.3635,90.9258 0.3635,90.0586 L0.3635,5.169 C0.3635,4.2169 0.6233,3.459 1.1438,2.8946 C1.6633,2.3311 2.3987,2.0489 3.3538,2.0489 L36.3733,2.0489 C42.7864,2.0489 48.3538,3.0889 53.0784,5.169 C57.8011,7.2491 61.4641,10.3487 64.0638,14.4639 C66.6634,18.5811 67.9642,23.7168 67.9642,29.8692 C67.9642,36.0216 66.6634,41.1358 64.0638,45.209 C61.4642,49.2832 57.8011,52.3584 53.0784,54.4385 C48.3538,56.5186 42.7864,57.5586 36.3733,57.5586 L13.3635,57.5586 L13.3635,90.0586 C13.3635,90.9258 13.0813,91.6416 12.5188,92.2041 C11.9543,92.7686 11.1965,93.0488 10.2434,93.0488 L3.3538,93.0488 L3.3538,93.0488 Z M13.2336,46.6386 L35.7239,46.6386 C42.136,46.6386 46.9466,45.2089 50.1536,42.3486 C53.3587,39.4892 54.9641,35.3291 54.9641,29.8691 C54.9641,24.4961 53.4036,20.3359 50.2834,17.3886 C47.1633,14.4433 42.3088,12.9687 35.7238,12.9687 L13.2336,12.9687 L13.2336,46.6386 L13.2336,46.6386 Z" id="Shape"></path>
                <path d="M86.8138,93.0488 C85.8587,93.0488 85.1234,92.7685 84.6038,92.2041 C84.0833,91.6416 83.8235,90.9258 83.8235,90.0586 L83.8235,5.169 C83.8235,4.2169 84.0833,3.459 84.6038,2.8946 C85.1233,2.3311 85.8587,2.0489 86.8138,2.0489 L139.8538,2.0489 C140.8059,2.0489 141.5638,2.3311 142.1292,2.8946 C142.6917,3.4591 142.9739,4.2169 142.9739,5.169 L142.9739,10.3692 C142.9739,11.3243 142.6917,12.0587 142.1292,12.5782 C141.5638,13.0987 140.806,13.3594 139.8538,13.3594 L96.4339,13.3594 L96.4339,43.6485 L137.2542,43.6485 C138.2063,43.6485 138.9642,43.9317 139.5286,44.4942 C140.0911,45.0587 140.3733,45.8165 140.3733,46.7686 L140.3733,51.9688 C140.3733,52.836 140.0911,53.5508 139.5286,54.1143 C138.9641,54.6788 138.2063,54.959 137.2542,54.959 L96.4339,54.959 L96.4339,90.0586 C96.4339,90.9258 96.1517,91.6416 95.5892,92.2041 C95.0238,92.7686 94.266,93.0488 93.3138,93.0488 L86.8138,93.0488 L86.8138,93.0488 Z" id="Path"></path>
                <path d="M162.7337,93.0488 C161.7786,93.0488 161.0433,92.7685 160.5237,92.2041 C160.0032,91.6416 159.7434,90.9258 159.7434,90.0586 L159.7434,5.169 C159.7434,4.2169 160.0032,3.459 160.5237,2.8946 C161.0432,2.3311 161.7786,2.0489 162.7337,2.0489 L215.7737,2.0489 C216.7258,2.0489 217.4837,2.3311 218.0491,2.8946 C218.6116,3.4591 218.8938,4.2169 218.8938,5.169 L218.8938,10.3692 C218.8938,11.3243 218.6116,12.0587 218.0491,12.5782 C217.4837,13.0987 216.7259,13.3594 215.7737,13.3594 L172.3538,13.3594 L172.3538,43.6485 L213.1741,43.6485 C214.1262,43.6485 214.8841,43.9317 215.4485,44.4942 C216.011,45.0587 216.2932,45.8165 216.2932,46.7686 L216.2932,51.9688 C216.2932,52.836 216.011,53.5508 215.4485,54.1143 C214.884,54.6788 214.1262,54.959 213.1741,54.959 L172.3538,54.959 L172.3538,90.0586 C172.3538,90.9258 172.0716,91.6416 171.5091,92.2041 C170.9437,92.7686 170.1859,93.0488 169.2337,93.0488 L162.7337,93.0488 L162.7337,93.0488 Z" id="Path"></path>
                <path d="M268.4241,93.0488 C267.469,93.0488 266.7337,92.7685 266.2141,92.2041 C265.6936,91.6416 265.4338,90.9258 265.4338,90.0586 L265.4338,5.169 C265.4338,4.2169 265.6936,3.459 266.2141,2.8946 C266.7336,2.3311 267.469,2.0489 268.4241,2.0489 L321.4641,2.0489 C322.4162,2.0489 323.1741,2.3311 323.7395,2.8946 C324.302,3.4591 324.5842,4.2169 324.5842,5.169 L324.5842,10.3692 C324.5842,11.3243 324.302,12.0587 323.7395,12.5782 C323.1741,13.0987 322.4163,13.3594 321.4641,13.3594 L278.0442,13.3594 L278.0442,43.6485 L318.8645,43.6485 C319.8166,43.6485 320.5745,43.9317 321.1389,44.4942 C321.7014,45.0587 321.9836,45.8165 321.9836,46.7686 L321.9836,51.9688 C321.9836,52.836 321.7014,53.5508 321.1389,54.1143 C320.5744,54.6788 319.8166,54.959 318.8645,54.959 L278.0442,54.959 L278.0442,90.0586 C278.0442,90.9258 277.762,91.6416 277.1995,92.2041 C276.6341,92.7686 275.8763,93.0488 274.9241,93.0488 L268.4241,93.0488 L268.4241,93.0488 Z" id="Path"></path>
                <path d="M344.344,93.0488 C343.3889,93.0488 342.6536,92.7685 342.134,92.2041 C341.6135,91.6416 341.3537,90.9258 341.3537,90.0586 L341.3537,5.169 C341.3537,4.2169 341.6135,3.459 342.134,2.8946 C342.6535,2.3311 343.3889,2.0489 344.344,2.0489 L397.384,2.0489 C398.3361,2.0489 399.094,2.3311 399.6594,2.8946 C400.2219,3.4591 400.5041,4.2169 400.5041,5.169 L400.5041,10.3692 C400.5041,11.3243 400.2219,12.0587 399.6594,12.5782 C399.094,13.0987 398.3362,13.3594 397.384,13.3594 L353.9641,13.3594 L353.9641,43.6485 L394.7844,43.6485 C395.7365,43.6485 396.4944,43.9317 397.0588,44.4942 C397.6213,45.0587 397.9035,45.8165 397.9035,46.7686 L397.9035,51.9688 C397.9035,52.836 397.6213,53.5508 397.0588,54.1143 C396.4943,54.6788 395.7365,54.959 394.7844,54.959 L353.9641,54.959 L353.9641,90.0586 C353.9641,90.9258 353.6819,91.6416 353.1194,92.2041 C352.554,92.7686 351.7962,93.0488 350.844,93.0488 L344.344,93.0488 L344.344,93.0488 Z" id="Path"></path>
                <path d="M445.6155,94.3486 C438.0755,94.3486 431.7483,93.1787 426.635,90.8388 C421.5207,88.499 417.5998,85.4882 414.8704,81.8036 C412.1399,78.121 410.6878,74.2431 410.5149,70.1688 C410.5149,69.4764 410.7952,68.8485 411.3606,68.284 C411.9231,67.7205 412.595,67.4383 413.3752,67.4383 L420.0051,67.4383 C421.0451,67.4383 421.8254,67.699 422.3449,68.2186 C422.8654,68.7391 423.2101,69.3456 423.3849,70.0389 C423.9054,72.119 424.9874,74.1785 426.6349,76.2137 C428.2804,78.2508 430.6427,79.9412 433.7199,81.284 C436.7951,82.6287 440.7599,83.2986 445.6154,83.2986 C453.0675,83.2986 458.55,81.9783 462.0597,79.3338 C465.5704,76.6912 467.3253,73.159 467.3253,68.7391 C467.3253,65.7059 466.3927,63.2586 464.5304,61.3934 C462.6652,59.5311 459.8273,57.8631 456.0148,56.3885 C452.2003,54.9158 447.2599,53.3133 441.1955,51.5789 C434.8674,49.7586 429.6252,47.7664 425.465,45.5984 C421.3048,43.4334 418.2052,40.7459 416.1701,37.5388 C414.133,34.3337 413.1154,30.2585 413.1154,25.3181 C413.1154,20.6384 414.3703,16.4587 416.8849,12.7732 C419.3976,9.0916 423.0372,6.1658 427.8048,3.9988 C432.5704,1.8338 438.2902,0.7488 444.965,0.7488 C450.338,0.7488 455.0402,1.4636 459.0705,2.8943 C463.0998,4.324 466.4582,6.2302 469.1447,8.6131 C471.8302,10.9979 473.8674,13.5535 475.2551,16.283 C476.6408,19.0135 477.3781,21.6785 477.4651,24.2791 C477.4651,24.8855 477.2483,25.4705 476.8147,26.034 C476.3801,26.5985 475.6877,26.8787 474.7356,26.8787 L467.845,26.8787 C467.2376,26.8787 466.6106,26.7058 465.9602,26.3582 C465.3098,26.0135 464.8108,25.3631 464.4651,24.409 C463.9456,20.8553 461.9505,17.866 458.4856,15.4393 C455.0178,13.0135 450.51,11.7987 444.9651,11.7987 C439.3303,11.7987 434.76,12.8827 431.2503,15.0487 C427.7405,17.2167 425.9857,20.5956 425.9857,25.1883 C425.9857,28.1356 426.808,30.5838 428.4554,32.534 C430.1009,34.4832 432.7005,36.1961 436.2552,37.6688 C439.8079,39.1434 444.4456,40.703 450.1654,42.3485 C457.098,44.2557 462.7758,46.2714 467.1957,48.3934 C471.6156,50.5184 474.8852,53.161 477.0102,56.3241 C479.1332,59.4882 480.1957,63.5389 480.1957,68.4784 C480.1957,73.9384 478.765,78.5985 475.9057,82.454 C473.0453,86.3114 469.0356,89.2587 463.8803,91.2938 C458.7231,93.329 452.6352,94.3486 445.6157,94.3486 L445.6155,94.3486 Z" id="Path"></path>
                <path d="M527.1233,93.0489 C526.2561,93.0489 525.5413,92.7685 524.9788,92.2041 C524.4143,91.6416 524.1341,90.9258 524.1341,90.0586 L524.1341,85.8984 C524.1341,85.1191 524.3489,84.2539 524.7835,83.2988 C525.2161,82.3457 526.0833,81.3066 527.3841,80.1787 L554.9437,52.6191 C559.3636,48.8935 562.8519,45.7089 565.4085,43.0634 C567.9642,40.4208 569.7845,37.8857 570.8685,35.4589 C571.9515,33.0331 572.4935,30.5185 572.4935,27.9189 C572.4935,22.9785 571.1068,19.0585 568.3333,16.1543 C565.5589,13.251 561.4437,11.7988 555.9837,11.7988 C552.5159,11.7988 549.5267,12.5136 547.014,13.9433 C544.4994,15.374 542.5492,17.3242 541.1634,19.7939 C539.7767,22.2636 538.8236,25.0585 538.304,28.1787 C538.1292,29.3066 537.6741,30.0859 536.9388,30.5185 C536.2015,30.9531 535.5286,31.1689 534.9242,31.1689 L528.1635,31.1689 C527.3842,31.1689 526.7338,30.9316 526.2143,30.4541 C525.6938,29.9785 525.434,29.3936 525.434,28.6992 C525.519,25.4062 526.2143,22.0918 527.5141,18.7539 C528.8139,15.418 530.7416,12.3838 533.2993,9.6543 C535.854,6.9238 539.019,4.7363 542.7886,3.0889 C546.5591,1.4434 550.9566,0.6192 555.9839,0.6192 C562.8296,0.6192 568.4419,1.8536 572.8189,4.3243 C577.1939,6.794 580.4244,10.0665 582.5044,14.1388 C584.5835,18.213 585.6235,22.6759 585.6235,27.5294 C585.6235,31.3439 584.9741,34.8312 583.6743,37.9942 C582.3735,41.1583 580.4888,44.2335 578.019,47.2237 C575.5492,50.2139 572.4936,53.2686 568.854,56.3887 L543.894,81.7393 L584.4536,81.7393 C585.4067,81.7393 586.1645,81.9991 586.729,82.5186 C587.2915,83.0391 587.5737,83.7764 587.5737,84.7286 L587.5737,90.0587 C587.5737,90.9259 587.2915,91.6417 586.729,92.2042 C586.1645,92.7687 585.4067,93.0489 584.4536,93.0489 L527.1235,93.0489 L527.1233,93.0489 Z" id="Path"></path>
                <path d="M629.4329,94.3486 C622.5852,94.3486 616.8001,93.1562 612.0774,90.7734 C607.3528,88.3916 603.7581,85.2939 601.2874,81.4785 C598.8177,77.666 597.4954,73.6357 597.3226,69.3887 C597.2357,68.6084 597.4525,67.9815 597.973,67.5039 C598.4925,67.0283 599.1429,66.7891 599.9232,66.7891 L606.9427,66.7891 C607.723,66.7891 608.4154,66.9834 609.0228,67.3741 C609.6283,67.7637 610.1058,68.5235 610.4525,69.6485 C611.3177,72.8565 612.7279,75.4786 614.6781,77.5137 C616.6273,79.5508 618.8802,81.0235 621.4379,81.9336 C623.9936,82.8438 626.6586,83.2988 629.433,83.2988 C633.1586,83.2988 636.5609,82.541 639.6381,81.0234 C642.7133,79.5088 645.1625,77.2539 646.9828,74.2636 C648.8031,71.2733 649.7133,67.6562 649.7133,63.4091 C649.7133,59.5087 648.8227,56.1513 647.0483,53.3339 C645.271,50.5185 642.8432,48.3515 639.768,46.8339 C636.6909,45.3183 633.2455,44.5585 629.433,44.5585 C626.5726,44.5585 624.2328,44.9062 622.4125,45.5985 C620.5932,46.2938 619.0531,47.1161 617.7982,48.0682 C616.5404,49.0233 615.4134,49.8455 614.4173,50.5389 C613.4202,51.2332 612.3157,51.5789 611.1028,51.5789 L604.343,51.5789 C603.5627,51.5789 602.8684,51.2986 602.2629,50.7332 C601.6555,50.1707 601.3957,49.4988 601.4826,48.7186 L605.6428,5.2987 C605.7278,4.2587 606.053,3.4589 606.6174,2.8944 C607.1799,2.3309 607.9377,2.0487 608.8928,2.0487 L654.2629,2.0487 C655.1281,2.0487 655.843,2.3309 656.4074,2.8944 C656.9699,3.4589 657.2521,4.1737 657.2521,5.0389 L657.2521,10.1092 C657.2521,11.0633 656.9699,11.7987 656.4074,12.3182 C655.8429,12.8387 655.1281,13.0985 654.2629,13.0985 L616.8225,13.0985 L614.3528,38.7089 C615.6526,37.9286 617.6233,36.998 620.2678,35.914 C622.9104,34.831 626.5725,34.289 631.2522,34.289 C635.5852,34.289 639.6379,34.9384 643.4075,36.2392 C647.178,37.539 650.513,39.4462 653.4173,41.9589 C656.3206,44.4735 658.595,47.5282 660.2425,51.1239 C661.888,54.7206 662.7132,58.8583 662.7132,63.5389 C662.7132,70.1258 661.2825,75.7157 658.4232,80.3084 C655.5628,84.9031 651.6185,88.3914 646.5931,90.7732 C641.5658,93.156 635.8451,94.3486 629.4329,94.3486 L629.4329,94.3486 Z" id="Path"></path>
            </g>
            <g id="Group" transform="translate(28.000000, 0.000000)" fill="#FFFFFF" fill-rule="nonzero">
                <path d="M0.7542,221.457 L0.7542,12.4375 C0.7542,9.9453 1.4339,7.9639 2.7942,6.4863 C4.1536,5.0156 6.0774,4.2773 8.5735,4.2773 L25.9143,4.2773 C28.4055,4.2773 30.387,5.0156 31.8635,6.4863 C33.3352,7.9638 34.0735,9.9453 34.0735,12.4375 L34.0735,106.2773 L151.0335,106.2773 L151.0335,12.4375 C151.0335,9.9453 151.7669,7.9639 153.2435,6.4863 C154.7152,5.0156 156.5853,4.2773 158.8539,4.2773 L176.1937,4.2773 C178.6859,4.2773 180.6673,5.0156 182.1439,6.4863 C183.6156,7.9638 184.3539,9.9453 184.3539,12.4375 L184.3539,185.457 C184.3539,187.7246 151.0336,201.7246 151.0336,199.457 L151.0336,136.8769 L34.0736,136.8769 L34.0736,221.457 C34.0736,223.7246 0.9701,222 0.7542,221.457 L0.7542,221.457 Z" id="Path"></path>
                <path d="M267.3098,235.6465 C253.4817,228.9639 242.8303,218.6465 235.3498,204.707 C227.8703,190.7675 223.673,173.2568 222.7707,152.1767 C222.5422,142.205 222.4299,132.6269 222.4299,123.4472 C222.4299,114.2675 222.5422,104.6933 222.7707,94.7167 C223.673,73.8651 228.0402,56.4667 235.8605,42.5272 C243.6798,28.5868 254.5597,18.1639 268.5001,11.2469 C282.4405,4.3358 298.7013,0.8768 317.2901,0.8768 C335.6505,0.8768 351.7999,4.3358 365.7403,11.2469 C379.6798,18.1639 390.6133,28.5867 398.5499,42.5272 C406.4815,56.4667 410.7901,73.8651 411.4698,94.7167 C411.9219,104.6933 412.1505,114.2675 412.1505,123.4472 C412.1505,132.6269 411.922,142.205 411.4698,152.1767 C410.7901,173.2568 406.6514,190.7675 399.0596,204.707 C391.4629,218.6465 380.753,227.9638 366.9297,234.6465 C336.9697,219 311.9697,226 267.3096,235.6465 L267.3098,235.6465 Z M317.2903,216.7774 C334.513,216.7774 348.6233,211.5655 359.6204,201.1368 C370.6116,190.7139 376.5618,173.8253 377.47,150.4766 C377.9221,140.2774 378.1507,131.1553 378.1507,123.1075 C378.1507,115.0645 377.9222,106.0538 377.47,96.0763 C377.013,80.4376 374.1233,67.7452 368.8001,57.9972 C363.472,48.254 356.3899,41.1134 347.5501,36.5763 C338.7103,32.0451 328.6224,29.7775 317.2903,29.7775 C305.9582,29.7775 295.8704,32.0451 287.0305,36.5763 C278.1907,41.1134 271.1037,48.254 265.7805,57.9972 C260.4514,67.7452 257.4504,80.4376 256.7707,96.0763 C256.5422,106.0538 256.4299,115.0646 256.4299,123.1075 C256.4299,131.1554 256.5422,140.2774 256.7707,150.4766 C257.673,173.8252 263.6818,190.7139 274.7902,201.1368 C285.8937,211.5655 300.0617,216.7774 317.2902,216.7774 L317.2903,216.7774 Z" id="Shape"></path>
                <path d="M456.6858,228.457 L456.6858,12.4375 C456.6858,9.9453 457.3655,7.9639 458.7258,6.4863 C460.0852,5.0156 462.009,4.2773 464.5051,4.2773 L547.4651,4.2773 C573.0774,4.2773 593.3655,10.2851 608.3255,22.2968 C623.2855,34.3144 630.7659,52.1054 630.7659,75.6767 C630.7659,93.1337 626.3987,107.3554 617.6751,118.3466 C608.9476,129.3437 597.1058,136.9941 582.1458,141.2968 L629.97,223.9999 C630.6507,225.3603 586.3294,211.0399 584.97,208.9999 L549.5052,146.7362 L490.0052,146.7362 L490.0052,203.4569 C490.0052,205.7245 456.6858,230.7245 456.6858,228.4569 L456.6858,228.457 Z M490.0051,117.8369 L546.1057,117.8369 C563.1057,117.8369 575.7971,114.2676 584.1858,107.1269 C592.5686,99.9863 596.7659,89.3935 596.7659,75.3369 C596.7659,61.5137 592.6272,50.9736 584.3557,43.7168 C576.0784,36.4648 563.3284,32.8369 546.1057,32.8369 L490.0051,32.8369 L490.0051,117.8369 Z" id="Shape"></path>
                <path d="M681.0851,217.457 L681.0851,12.0966 C681.0851,9.8339 681.7649,7.9638 683.1252,6.4862 C684.4856,5.0155 686.4084,4.2772 688.9055,4.2772 L706.925,4.2772 C709.4172,4.2772 711.3449,5.0155 712.7053,6.4862 C714.0657,7.9637 714.7453,9.8339 714.7453,12.0966 L714.7453,228.457 C714.7453,230.7246 681.0851,219.7246 681.0851,217.457 L681.0851,217.457 Z" id="Path"></path>
                <path d="M756.5638,219.4971 C756.5638,216.0967 757.2435,213.377 758.6038,211.3369 C759.9632,209.2969 760.9837,207.8252 761.6634,206.917 L888.1429,33.8574 L767.4437,33.8574 C765.1751,33.8574 763.305,33.123 761.8333,31.6465 C760.3567,30.1758 759.6233,28.3047 759.6233,26.0371 L759.6233,12.4375 C759.6233,9.9453 760.3567,7.9639 761.8333,6.4863 C763.305,5.0156 765.1751,4.2773 767.4437,4.2773 L921.4632,4.2773 C923.9554,4.2773 925.9368,5.0156 927.4134,6.4863 C928.8851,7.9638 929.6234,9.9453 929.6234,12.4375 L929.6234,27.0566 C929.6234,29.7773 929.1664,32.0449 928.263,33.8574 C927.3548,35.6738 926.3353,37.373 925.2034,38.957 L810.97,198 L756.5638,219.4971 L756.5638,219.4971 Z" id="Path"></path>
                <path d="M950.97,175 C948.97,168 948.2355,158.1212 947.9807,152.1768 C947.7522,142.2051 947.6409,132.627 947.6409,123.4473 C947.6409,114.2676 947.7522,104.6934 947.9807,94.7168 C948.884,73.8652 953.2502,56.4668 961.0705,42.5273 C968.8908,28.5869 979.7707,18.164 993.7101,11.247 C1007.6505,4.3359 1023.9122,0.8769 1042.5001,0.8769 C1060.8605,0.8769 1077.0099,4.3359 1090.9503,11.247 C1104.8907,18.164 1115.8233,28.5868 1123.7599,42.5273 C1131.6915,56.4668 1136.0001,73.8652 1136.6808,94.7168 C1137.132,104.6934 1137.3605,114.2676 1137.3605,123.4473 C1137.3605,132.627 1137.132,142.2051 1136.6808,152.1768 C1136.0493,171.735 1132.441,188.2206 1125.8607,201.6321 L1100.382,170.3285 C1101.6327,164.3321 1102.3989,157.7148 1102.6807,150.4766 C1103.1319,140.2774 1103.3604,131.1553 1103.3604,123.1075 C1103.3604,115.0645 1103.1319,106.0538 1102.6807,96.0763 C1102.2237,80.4376 1099.333,67.7452 1094.0098,57.9972 C1088.6817,48.254 1081.6006,41.1134 1072.7598,36.5763 C1063.92,32.0451 1053.8321,29.7775 1042.5,29.7775 C1031.1679,29.7775 1021.0801,32.0451 1012.2402,36.5763 C1003.4004,41.1134 996.3134,48.254 990.9902,57.9972 C985.6621,67.7452 982.6601,80.4376 981.9804,96.0763 C981.7519,106.0538 981.6406,115.0646 981.6406,123.1075 C981.6406,131.1554 981.7519,140.2774 981.9804,150.4766 C982.2374,157.1196 982.9076,163.2396 983.9909,168.8366 L950.9696,175 L950.97,175 Z" id="Path"></path>
                <path d="M1188.0159,242.2773 C1185.5188,242.2773 1183.596,241.5439 1182.2356,240.0664 C1180.8752,238.5957 1180.1956,236.7246 1180.1956,234.457 L1180.1956,12.4375 C1180.1956,9.9453 1180.8753,7.9639 1182.2356,6.4863 C1183.596,5.0156 1185.5188,4.2772 1188.0159,4.2772 L1203.6555,4.2772 C1206.3752,4.2772 1208.4153,4.9043 1209.7756,6.1464 C1211.135,7.3954 1211.927,8.3573 1212.1555,9.037 L1325.0354,182.4374 L1325.0354,12.4374 C1325.0354,9.9452 1325.7151,7.9638 1327.0754,6.4862 C1328.4358,5.0155 1330.3586,4.2772 1332.8557,4.2772 L1349.175,4.2772 C1351.6672,4.2772 1353.6486,5.0155 1355.1252,6.4862 C1356.5969,7.9637 1357.3352,9.9452 1357.3352,12.4374 L1357.3352,202.1171 C1357.3352,204.3847 1320.4211,230.456 1319.97,229.9999 L1212.4954,65.8163 L1212.4954,234.4569 C1212.4954,236.7245 1211.7571,238.5956 1210.2854,240.0663 C1208.8088,241.5438 1206.8274,242.2773 1204.3352,242.2773 L1188.0159,242.2773 L1188.0159,242.2773 Z" id="Path"></path>
                <path d="M1451.513,219.457 L1451.513,34.5371 L1386.2337,34.5371 C1383.9651,34.5371 1382.095,33.8037 1380.6233,32.3262 C1379.1467,30.8555 1378.4133,28.9854 1378.4133,26.7168 L1378.4133,12.4375 C1378.4133,9.9453 1379.1467,7.9639 1380.6233,6.4863 C1382.095,5.0156 1383.9651,4.2773 1386.2337,4.2773 L1550.1136,4.2773 C1552.6048,4.2773 1554.5863,5.0156 1556.0638,6.4863 C1557.5345,7.9638 1558.2738,9.9453 1558.2738,12.4375 L1558.2738,26.7168 C1558.2738,28.9854 1557.5345,30.8555 1556.0638,32.3262 C1554.5863,33.8037 1552.6048,34.5371 1550.1136,34.5371 L1485.1732,34.5371 L1485.1732,234.457 C1485.1732,236.7246 1451.513,221.7246 1451.513,219.457 Z" id="Path"></path>
            </g>
            <polyline id="Path" stroke="#FFFFFF" stroke-width="15" points="1599.1987 166.932 1550.2175 225.2119 1532.7333 234.9388 1521.4345 235.7589 1451.0554 204.4155 1378.8681 203.838 1328.1522 244.1624 1270.6932 241.5991 1186.8877 233.7838 1169.4035 224.0569 1113.4223 165.777 1076.6124 165.154 1044.3256 165.908 990.0129 175.4953 941.4103 190.4541 863.0443 197.2561 826.5565 197.527 781.8071 218.333 742.3039 226.0041 696.3124 212.5585 647.6234 224.3022 586.603 184.3585 564.1368 169.4137 524.7587 193.0001 475.0105 234.3227 422.8918 233.2495 384.697 225.6917 340.3531 225.2326 306.9976 235.0519 260.3407 219.7156 220.4031 179.3205 211.1631 188.5605 197.3031 186.2505 182.2881 197.223 150.5256 187.983 121.6506 192.0255 111.8331 202.998 90.4656 205.8855 53.5056 219.168 30.9831 215.1255 0.3756 216.858"></polyline>
        </g>
    </g>
</svg>