<?xml version="1.0" encoding="UTF-8"?>
<svg id="Ebene_1" data-name="Ebene 1" xmlns="http://www.w3.org/2000/svg" viewBox="0 0 274.11 270.53">
  <defs>
    <style>
      .cls-1 {
        fill: #cd4217;
      }
    </style>
  </defs>
  <path class="cls-1" d="M214.09,44.3c4.17-.32,8.37-1.06,12.55-1.23,3.8-.15,9.33-.18,13.05.3,1.67.22,1.76,1.41,1.62,2.86-.57,5.64-2.47,13.03-3.7,18.72-.27,1.24-2.2,7.5-1.69,8.09,5.52,1.19,10.75,3.45,16.2,4.85,3.17.82,8.23,1.15,10.87,2.15,1.58.6,1.65,1.66,1,3.1-3.96,8.22-9.71,15.41-14.15,23.36,5.37,3.17,10.61,6.6,15.94,9.81,1.58.95,7.28,3.52,7.98,4.74.41.71.49,1.46,0,2.15-3.93,4.27-8.09,8.27-12.59,11.94-1.18.96-9.53,6.82-9.53,7.43,5.64,6.27,14.11,12.14,18.54,19.32.91,1.47,1.39,1.96-.46,3-3.38,1.91-7.74,3.38-11.22,5.13-4.57,2.3-8.89,5.04-13.52,7.23,2.67,5.89,5.85,12.05,7.58,18.31.32,1.18.71,2.47.87,3.68.07.55.35,4.51.3,4.74-.48,1.86-2.88.77-4.04.8-1.87.05-4.71.41-6.63.67-5.7.79-11.01,3.11-16.83,3.31.09,4.1,1.6,8.17.88,12.24-.39,2.77,1.32,13.56-.36,15.24-.73.73-6.01.19-7.35.07-7.15-.63-14.19-3-21.37-2.89-1.06,4.03-2.7,7.91-3.83,11.92-1.15,4.05-1.82,8.78-3.02,12.73-.23.77-.87,2.1-1.77,2.18l-25.13-13.6c-4.5,7.23-9.83,14-13.89,21.5-.47.86-.43,2.43-1.85,2.38-.94-.04-4.3-3.64-5.15-4.52-4.95-5.14-8.96-11.19-14.28-16.01-.68-.13-5.25,3.5-6.01,4.2-4.06,3.75-7.66,7.72-12.13,11.19-.56.44-3.11,2.4-3.48,2.58-.45.21-.81.24-1.29.1-1.38-.4-11.15-22.91-12.94-25.69-3.53,1.54-7.31,2.55-10.8,4.19-2.28,1.07-4.36,2.59-6.65,3.64-1.24.57-5.35,2.57-6.4,1.49l-6.17-27.45c-5.17.21-10.37.53-15.55.87-3.51.23-7.08.8-10.59.92-1.02.03-4.21.23-4.74-.44-.78-.99.43-7.18.72-8.72,1.3-6.89,3.85-13.55,4.75-20.53l-23.08-4.63c-1.98-.88-5.51-1.03-4.25-4.08,1.61-2.21,2.74-4.7,4.19-7.02,3.54-5.67,7.96-10.96,10.08-17.38-.25-1.01-11.07-7.72-12.78-8.75-1.88-1.13-11.68-5.89-11.97-7.41-.15-.81,2.58-2.83,3.29-3.58,1.26-1.33,2.51-3.09,3.77-4.4,4.39-4.55,9.32-8.25,14.54-11.81.9-.47-.05-1.46-.56-2.01-5.21-5.64-11.48-11.55-16.4-17.37-.82-.97-4.06-4.82-2.36-5.7,9.21-2.9,18.71-4.81,27.95-7.65.76-1.04-4.77-15.07-5.69-17.15-1.71-3.87-4.83-8.58-5.97-12.51-.13-.45-.24-.86-.11-1.33l28.09-3.27c-.23-2.44-.11-4.93-.26-7.37-.42-6.69-2.08-15.61-1.22-22.13.36-2.76,4.25-.56,5.94-.16,7.7,1.84,15.31,3.83,22.97,5.8,2.48-9.11,5.37-18.29,9.13-26.97.58-1.34.84-1.84,2.48-1.29,2.94.99,6.78,4.45,9.98,5.48l13.28,8.53L125.26.14c1.92-.58,1.84.8,2.83,1.59,2.95,2.36,6.53,3.94,9.52,6.54,3.28,2.85,5.8,6.63,9.09,9.38,1.28,0,8.1-6.8,9.54-8.03,1.63-1.4,8.32-7.46,9.68-7.89.65-.2,1.13-.27,1.7.15s2.21,6.07,2.71,7.29c1.41,3.43,3.24,6.71,4.74,10.1.48,1.09,2.41,6.97,3.16,7.15,6.21-3.25,12.95-5.15,19.41-7.8,2.01-.82,3.86-2.02,5.95-2.83,5.04-1.96,5.28-2.68,6.66,2.83,2.1,8.39,3.04,17.09,3.84,25.69Z"/>
</svg>